<?xml version="1.0" encoding="utf-8"?>
<!-- Generator: Adobe Illustrator 23.0.1, SVG Export Plug-In . SVG Version: 6.00 Build 0)  -->
<svg version="1.1" id="OBJECTS" xmlns="http://www.w3.org/2000/svg" xmlns:xlink="http://www.w3.org/1999/xlink" x="0px" y="0px"
	 viewBox="0 0 160 160" style="enable-background:new 0 0 160 160;" xml:space="preserve">
<style type="text/css">
	.st0{fill:#888;}
	.st1{fill:#e7e7e7;}
	.st2{fill:#111;}
</style>
<g>
	<g>
		<path class="st0" d="M67.3,55.7L75.6,70l3.7,6.4l22.1,38.3l35.9-0.1L78.2,14.1L61.2,45L67.3,55.7z M130.1,114.5l-21.3,0.1"/>
		<path class="st1" d="M39.1,145.9l11.7-20.3l2.7-4.7l3.7-6.4l22.1-38.3L61.2,45L3.6,145.9H39.1z M64.8,51.5l2.5,4.2l8.3,14.2V70
			L64.8,51.5z"/>
		<path class="st2" d="M39,145.9h117.4l-19.1-31.4l-80.1,0.1L39,145.9z M53.4,121l-10.6,18.5l7.9-13.9L53.4,121z"/>
	</g>
</g>
</svg>
